<?xml version="1.0" encoding="UTF-8"?>
<svg width="42px" height="40px" viewBox="0 0 42 40" version="1.1" xmlns="http://www.w3.org/2000/svg" xmlns:xlink="http://www.w3.org/1999/xlink">
    <title>FB63208D-972A-44D8-9600-FAA5545AE5BC@1.00x</title>
    <g id="Home" stroke="none" stroke-width="1" fill="none" fill-rule="evenodd">
        <g id="home-/-mobile" transform="translate(-19.000000, -6465.000000)" fill="#00AA13" fill-rule="nonzero">
            <g id="component-/-fly-up-banner-download-/-mobile" transform="translate(0.000000, 6437.000000)">
                <g id="fave-icon-logo" transform="translate(19.718196, 28.000000)">
                    <path d="M13.5895676,20.2397726 C13.5895676,16.3471725 16.7339981,13.1899642 20.6108442,13.1899642 C24.4876903,13.1899642 27.6321208,16.3471725 27.6321208,20.2397726 C27.6321208,24.1323727 24.4904437,27.289581 20.6108442,27.289581 C16.7312447,27.289581 13.5895676,24.1323727 13.5895676,20.2397726" id="Path"></path>
                    <path d="M20.3843514,1.23977457e-12 C9.12633706,1.23977457e-12 6.23614635e-13,9.1458436 6.23614635e-13,20.4279198 C6.23614635e-13,28.8977394 5.10283367,36.1266809 12.5142349,39.2724423 C12.9819446,39.4647333 13.482634,39.5668879 13.9893196,39.5698925 C16.1000099,39.5698925 17.8119476,37.8542958 17.8119476,35.7390943 C17.8119476,34.1947568 16.8855224,32.8036513 15.4674024,32.2057463 L15.4674024,32.2027418 C10.8742525,30.2738222 7.64525608,25.7279417 7.64525608,20.4249152 C7.64525608,13.3732421 13.3477177,7.65558799 20.3873495,7.65558799 C27.4269814,7.65558799 33.129443,13.3732421 33.129443,20.4249152 C33.129443,25.7279417 29.9004466,30.2738222 25.3072967,32.2027418 L25.3072967,32.2057463 C23.3615041,33.0259878 22.4470715,35.2703849 23.2655636,37.2203363 C23.8591952,38.6384827 25.2443358,39.5638834 26.7793833,39.5668879 C27.2860689,39.5638834 27.7867582,39.4617288 28.254468,39.2694377 C35.662871,36.1236764 40.7687028,28.8917303 40.7687028,20.4249152 C40.7687028,9.14283905 31.6423658,-0.00300380752 20.3843514,1.23977457e-12" id="Path"></path>
                </g>
            </g>
        </g>
    </g>
</svg>